<svg width="16" height="16" fill="none" xmlns="http://www.w3.org/2000/svg"><path d="M3.05 3.05a1 1 0 1 0 1.414 1.414L3.05 3.05Zm1.414 1.414a5 5 0 0 1 2.56-1.368l-.39-1.961A7 7 0 0 0 3.05 3.05l1.414 1.414Zm2.56-1.368a5 5 0 0 1 2.89.285l.765-1.848a7 7 0 0 0-4.045-.398l.39 1.961Zm2.89.285a5 5 0 0 1 2.243 1.841l1.663-1.111a7 7 0 0 0-3.141-2.578L9.913 3.38Zm2.243 1.841A5 5 0 0 1 13 8h2a7 7 0 0 0-1.18-3.889l-1.663 1.111Z" fill="#fff"/><path d="M3 8a1 1 0 0 0-2 0h2ZM1 8a7 7 0 0 0 .533 2.679l1.848-.766A5 5 0 0 1 3 8H1Zm.533 2.679a7 7 0 0 0 1.517 2.27l1.414-1.413a5 5 0 0 1-1.083-1.623l-1.848.766Zm1.517 2.27a7 7 0 0 0 2.271 1.518l.766-1.848a5 5 0 0 1-1.623-1.083L3.05 12.95Zm2.271 1.518C6.171 14.82 7.081 15 8 15v-2a5 5 0 0 1-1.913-.38l-.766 1.847ZM8 15c.92 0 1.83-.181 2.679-.533l-.766-1.848A5 5 0 0 1 8 13v2Zm2.679-.533a6.998 6.998 0 0 0 2.27-1.517l-1.413-1.414a5 5 0 0 1-1.623 1.083l.766 1.848Zm2.27-1.517a6.998 6.998 0 0 0 1.518-2.271l-1.848-.766a5 5 0 0 1-1.083 1.623l1.414 1.414Zm1.518-2.271C14.82 9.829 15 8.919 15 8h-2a5 5 0 0 1-.38 1.913l1.847.766Z" fill="#fff"/><defs><linearGradient id="a" x1="14" y1="8" x2="2" y2="8" gradientUnits="userSpaceOnUse"><stop/><stop offset="1"/></linearGradient><linearGradient id="b" x1="2" y1="8" x2="14" y2="8" gradientUnits="userSpaceOnUse"><stop/><stop offset="1"/></linearGradient></defs><animateTransform from="0 0 0" to="360 0 0" attributeName="transform" type="rotate" repeatCount="indefinite" dur="1300ms"/></svg>
